<svg preserveAspectRatio="none" width="100%" height="100%" overflow="visible" style="display: block;" viewBox="0 0 88 72" fill="none" xmlns="http://www.w3.org/2000/svg">
<g id="Container">
<path id="Icon" d="M44 72L16 56.8V32.8L0 24L44 0L88 24V56H80V28.4L72 32.8V56.8L44 72V72M44 38.8L71.4 24L44 9.2L16.6 24L44 38.8V38.8M44 62.9L64 52.1V37L44 48L24 37V52.1L44 62.9V62.9M44 38.8V38.8V38.8V38.8V38.8V38.8M44 47.8V47.8V47.8V47.8V47.8V47.8V47.8V47.8V47.8V47.8M44 47.8V47.8V47.8V47.8V47.8V47.8V47.8V47.8V47.8V47.8" fill="var(--fill-0, white)" fill-opacity="0.2"/>
</g>
</svg>
